<svg xmlns="http://www.w3.org/2000/svg" version="1.1" xmlns:xlink="http://www.w3.org/1999/xlink" width="1000" height="1000"><g clip-path="url(#SvgjsClipPath1173)"><rect width="1000" height="1000" fill="#151822"></rect><g transform="matrix(11.901455944777245,0,0,11.901455944777245,193.2161701114769,50)"><svg xmlns="http://www.w3.org/2000/svg" version="1.1" xmlns:xlink="http://www.w3.org/1999/xlink" width="51.554" height="75.621"><svg xmlns="http://www.w3.org/2000/svg" width="51.554" height="75.621" viewBox="0 0 51.554 75.621">
    <g id="Horace_Benjamin_-_Light-Colour" data-name="Horace Benjamin - Light-Colour" transform="translate(25.777 37.81)">
        <g id="Group_52" data-name="Group 52" transform="translate(-25.777 -37.81)">
            <g id="Group_51" data-name="Group 51" transform="translate(4.042 23.585)">
                <rect id="Rectangle_51" data-name="Rectangle 51" width="21.736" height="3.963" transform="matrix(0.784, -0.62, 0.62, 0.784, 0.605, 19.411)" fill="#f7cf26"></rect>
                <g id="Group_50" data-name="Group 50" transform="translate(26.355)">
                    <path id="Path_50" data-name="Path 50" d="M209.029,223.6a8.836,8.836,0,0,1-8.18,8.774l-.048,0H189.368v-3.963h10.883a4.814,4.814,0,0,0,.008-9.628H189.368V215.4h7.319a4.033,4.033,0,0,0,2.083-.576h1.48a8.777,8.777,0,0,1,8.778,8.776Z" transform="translate(-189.368 -203.924)" fill="#f2f1eb"></path>
                    <path id="Path_51" data-name="Path 51" d="M204.1,154.342a7.357,7.357,0,0,1-1.13,3.918,7.456,7.456,0,0,1-5.777,3.491l-.04,0h-7.783v-3.347h7.319a4.064,4.064,0,0,0,.007-8.129h-7.326v-3.347h7.319A7.42,7.42,0,0,1,204.1,154.342Z" transform="translate(-189.368 -146.931)" fill="#f2f1eb"></path>
                </g>
                <rect id="Rectangle_52" data-name="Rectangle 52" width="3.963" height="28.451" transform="translate(16.96 0)" fill="#f2f1eb"></rect>
                <rect id="Rectangle_53" data-name="Rectangle 53" width="3.963" height="28.451" transform="translate(0 0)" fill="#f2f1eb"></rect>
            </g>
            <path id="Path_52" data-name="Path 52" d="M0,11.235l.952-.952a35.08,35.08,0,0,1,49.65,0l.952.952-2.8,2.8-.952-.952a31.115,31.115,0,0,0-44.045,0l-.952.952Z" fill="#f2f1eb"></path>
            <path id="Path_53" data-name="Path 53" d="M51.554,386.463l-.952.952a35.08,35.08,0,0,1-49.65,0L0,386.463l2.8-2.8.952.952a31.116,31.116,0,0,0,44.045,0l.952-.952Z" transform="translate(0 -322.078)" fill="#f2f1eb"></path>
        </g>
    </g>
</svg></svg></g></g><defs><clipPath id="SvgjsClipPath1173"><rect width="1000" height="1000" x="0" y="0" rx="350" ry="350"></rect></clipPath></defs></svg>